<svg width="1200" height="760" viewBox="0 0 1200 760" xmlns="http://www.w3.org/2000/svg">
<defs><linearGradient id="g" x1="0" y1="0" x2="1" y2="1"><stop stop-color="#7A42F4"/><stop offset="1" stop-color="#29D3C5"/></linearGradient></defs>
<rect width="1200" height="760" rx="44" fill="#0D1024"/>
<text x="70" y="90" fill="#fff" font-family="Arial" font-size="44" font-weight="700">ChromIQ System Overview</text>
<text x="70" y="135" fill="#BDB6D9" font-family="Arial" font-size="24">Autonomous colour retrieval and sorting rover</text>
<rect x="80" y="210" width="280" height="160" rx="24" fill="#171B38" stroke="#7A42F4"/>
<text x="220" y="280" text-anchor="middle" fill="#fff" font-family="Arial" font-size="30" font-weight="700">Leo Rover</text>
<text x="220" y="320" text-anchor="middle" fill="#BDB6D9" font-family="Arial" font-size="20">Mobile base + NUC</text>
<rect x="460" y="170" width="280" height="120" rx="24" fill="#171B38" stroke="#29D3C5"/>
<text x="600" y="240" text-anchor="middle" fill="#fff" font-family="Arial" font-size="28" font-weight="700">LiDAR / RGB-D</text>
<rect x="460" y="350" width="280" height="120" rx="24" fill="#171B38" stroke="#29D3C5"/>
<text x="600" y="420" text-anchor="middle" fill="#fff" font-family="Arial" font-size="28" font-weight="700">SLAM + Nav2</text>
<rect x="840" y="210" width="280" height="160" rx="24" fill="#171B38" stroke="#7A42F4"/>
<text x="980" y="280" text-anchor="middle" fill="#fff" font-family="Arial" font-size="30" font-weight="700">myCobot</text>
<text x="980" y="320" text-anchor="middle" fill="#BDB6D9" font-family="Arial" font-size="20">Pick and place</text>
<path d="M365 290h90" stroke="url(#g)" stroke-width="10" stroke-linecap="round"/>
<path d="M745 230h90" stroke="url(#g)" stroke-width="10" stroke-linecap="round"/>
<path d="M600 300v42" stroke="url(#g)" stroke-width="10" stroke-linecap="round"/>
<path d="M745 410h160c42 0 75-34 75-75" stroke="url(#g)" stroke-width="10" stroke-linecap="round" fill="none"/>
<rect x="130" y="555" width="940" height="90" rx="24" fill="#171B38"/>
<text x="600" y="612" text-anchor="middle" fill="#fff" font-family="Arial" font-size="28" font-weight="700">Search → Detect → Navigate → Pick → Return → Sort</text>
</svg>
